HIERARCHY
ROOT Hips
{
	OFFSET -3.958830 18.904000 13.208200
	CHANNELS 6 Xposition Yposition Zposition Zrotation Yrotation Xrotation 
	JOINT LHipJoint
	{
		OFFSET 0.000000 0.000000 0.000000
		CHANNELS 3 Zrotation Yrotation Xrotation
		JOINT LeftUpLeg
		{
			OFFSET 1.800000 -1.400000 0.085000
			CHANNELS 3 Zrotation Yrotation Xrotation
			JOINT LeftLeg
			{
				OFFSET 2.215000 -6.000000 0.000000
				CHANNELS 3 Zrotation Yrotation Xrotation
				JOINT LeftFoot
				{
					OFFSET 2.500000 -6.900000 0.000000
					CHANNELS 3 Zrotation Yrotation Xrotation
					JOINT LeftToeBase
					{
						OFFSET 0.200000 -0.500000 1.950000
						CHANNELS 3 Zrotation Yrotation Xrotation
						End Site
						{
							OFFSET 0.000000 0.000000 0.000000
						}
					}
				}
			}
		}
	}
	JOINT RHipJoint
	{
		OFFSET 0.000000 0.000000 0.000000
		CHANNELS 3 Zrotation Yrotation Xrotation
		JOINT RightUpLeg
		{
			OFFSET -1.800000 -1.400000 0.085000
			CHANNELS 3 Zrotation Yrotation Xrotation
			JOINT RightLeg
			{
				OFFSET -2.215000 -6.000000 0.000000
				CHANNELS 3 Zrotation Yrotation Xrotation
				JOINT RightFoot
				{
					OFFSET -2.500000 -6.900000 0.000000
					CHANNELS 3 Zrotation Yrotation Xrotation
					JOINT RightToeBase
					{
						OFFSET -0.200000 -0.500000 1.950000
						CHANNELS 3 Zrotation Yrotation Xrotation
						End Site
						{
							OFFSET 0.000000 0.000000 0.000000
						}
					}
				}
			}
		}
	}
	JOINT LowerBack
	{
		OFFSET 0.000000 0.000000 0.000000
		CHANNELS 3 Zrotation Yrotation Xrotation
		JOINT Spine
		{
			OFFSET -0.087000 1.940000 -0.288900
			CHANNELS 3 Zrotation Yrotation Xrotation
			JOINT Spine1
			{
				OFFSET 0.000000 1.950000 0.060000
				CHANNELS 3 Zrotation Yrotation Xrotation
				JOINT Neck
				{
					OFFSET 0.000000 0.000000 0.000000
					CHANNELS 3 Zrotation Yrotation Xrotation
					JOINT Neck1
					{
						OFFSET 0.000000 1.600000 0.340000
						CHANNELS 3 Zrotation Yrotation Xrotation
						JOINT Head
						{
							OFFSET 0.000000 1.667000 -0.240000
							CHANNELS 3 Zrotation Yrotation Xrotation
							End Site
							{
								OFFSET 0.000000 0.000000 0.000000
							}
						}
					}
				}
				JOINT LeftShoulder
				{
					OFFSET 0.000000 0.000000 0.000000
					CHANNELS 3 Zrotation Yrotation Xrotation
					JOINT LeftArm
					{
						OFFSET 2.700000 1.550000 -0.730000
						CHANNELS 3 Zrotation Yrotation Xrotation
						JOINT LeftForeArm
						{
							OFFSET 5.450000 0.000000 0.000000
							CHANNELS 3 Zrotation Yrotation Xrotation
							JOINT LeftHand
							{
								OFFSET 3.450000 0.000000 0.000000
								CHANNELS 3 Zrotation Yrotation Xrotation
								JOINT LeftHandIndex1
								{
									OFFSET 0.750000 0.000000 0.000000
									CHANNELS 3 Zrotation Yrotation Xrotation
									End Site
									{
										OFFSET 0.000000 0.000000 0.000000
									}
								}
							}
						}
					}
				}
				JOINT RightShoulder
				{
					OFFSET 0.000000 0.000000 0.000000
					CHANNELS 3 Zrotation Yrotation Xrotation
					JOINT RightArm
					{
						OFFSET -2.700000 1.550000 -0.730000
						CHANNELS 3 Zrotation Yrotation Xrotation
						JOINT RightForeArm
						{
							OFFSET -5.450000 0.000000 0.000000
							CHANNELS 3 Zrotation Yrotation Xrotation
							JOINT RightHand
							{
								OFFSET -3.450000 0.000000 0.000000
								CHANNELS 3 Zrotation Yrotation Xrotation
								JOINT RightHandIndex1
								{
									OFFSET -0.750000 0.000000 0.000000
									CHANNELS 3 Zrotation Yrotation Xrotation
									End Site
									{
										OFFSET 0.000000 0.000000 0.000000
									}
								}
							}
						}
					}
				}
			}
		}
	}
}
MOTION
Frames: 10
Frame Time: 0.016667
1.949000 16.098220 -20.280940 162.334652 71.234283 157.273398 -15.212698 14.089195 3.631477 10.692794 -2.937797 22.500919 -10.258727 11.255273 20.025992 0.530959 8.407958 1.968416 0.277090 -0.315320 0.403750 18.083745 -9.527141 4.113658 3.926372 5.364486 -38.911001 10.969572 -10.880500 38.154070 -0.670694 -5.258192 2.488173 -0.210020 0.090720 0.147860 -2.040609 -4.662780 -8.967722 2.021092 -11.155685 21.300753 -2.006038 -8.943502 -10.984898 7.032016 -0.240340 -14.971417 -5.642186 -9.515416 43.778568 -1.992790 -13.197520 -16.556790 -12.050780 -9.091295 2.768810 -35.239445 -9.303427 0.313490 16.205561 -11.194082 -2.389942 -3.654887 2.625202 0.901410 -0.200200 0.046920 0.071650 -2.683700 12.120611 13.021767 46.000869 -9.165162 -8.966907 -22.075584 13.338858 -1.251485 2.313329 -1.202721 -0.302440 0.281350 0.105390 -0.307420 
2.390300 16.100280 -20.369080 162.864025 72.184890 162.136145 -15.229222 14.080193 3.603278 9.551705 -2.988253 19.951792 -9.756025 10.346869 17.494369 0.399194 7.934030 2.180054 0.234620 -0.429670 0.403070 18.080647 -9.354544 4.374616 6.015076 6.663360 -40.437171 9.111326 -10.671600 39.768605 -0.626659 -5.423133 2.428922 -0.241190 0.167120 0.167690 -2.705099 -4.646791 -8.978069 9.681060 -12.922313 14.772157 -7.216680 -9.088366 -17.948871 7.417716 -1.375543 -11.992162 -7.013426 -10.121489 39.689789 -5.330890 -12.705450 -10.614010 -8.221043 0.464574 -0.286649 -34.199033 -8.769119 1.263271 10.332118 -15.765554 -1.635062 -3.719222 2.663604 0.818860 -0.111500 -0.066990 0.086570 -7.403035 3.455853 10.747481 41.862750 -9.765536 -7.992158 -16.194610 20.571091 -0.786491 2.242188 -1.293708 -0.341460 0.222240 0.106720 -0.316680 
2.735760 16.187950 -20.354750 160.807626 70.827178 161.711328 -15.158157 14.219456 3.523696 9.604840 -3.564432 15.998631 -9.736535 10.254239 19.191611 0.326349 7.725608 2.250813 0.220750 -0.433740 0.365540 18.096627 -9.549694 4.301741 6.484179 6.162507 -38.931287 7.923659 -10.278985 39.412913 -0.573291 -5.326639 2.487821 -0.241230 0.214880 0.198680 -2.828542 -4.713767 -8.839435 10.580107 -13.528092 13.221892 -8.806850 -9.406563 -22.360530 7.559690 -1.904645 -11.014312 -7.740205 -10.125077 38.022736 -5.728740 -12.613330 -8.670470 -2.930752 5.294298 -1.527086 -33.953821 -10.476278 2.620772 6.015816 -16.815007 -0.869727 -3.777273 2.699910 0.748320 -0.046560 -0.104870 0.100310 -12.641512 -1.041756 9.524866 40.125529 -9.519936 -7.567226 -10.762709 21.403860 0.245620 2.202865 -1.361837 -0.318530 0.196820 0.111670 -0.292560 
3.012150 16.319220 -20.381160 164.455691 71.820251 166.076812 -15.135264 14.448802 3.447028 9.234555 -3.562051 12.855303 -8.535802 9.576847 19.273897 0.243472 7.403733 2.373408 0.102830 -0.548870 0.216400 18.108605 -9.527611 4.220324 8.817469 6.037832 -35.943061 6.883360 -9.337389 36.915849 -0.412771 -4.861738 2.679714 -0.292790 0.343750 0.226070 -3.044289 -5.172302 -8.556648 15.646429 -14.742187 12.179145 -11.159211 -9.646120 -24.111507 7.213789 -3.149681 -10.974201 -9.241686 -8.811477 35.279861 -5.020040 -12.045880 -4.802570 -0.231130 7.349894 -1.595892 -31.770444 -9.009883 2.502543 3.270945 -20.344938 -0.087421 -3.840839 2.806712 0.645640 0.055950 -0.210700 0.099650 -14.764309 -2.099485 8.967647 37.373752 -9.021933 -7.482415 -10.338643 22.742080 0.614788 2.162718 -1.474356 -0.327600 0.171590 0.197360 -0.246530 
3.288240 16.468380 -20.307160 163.985365 72.817417 165.428368 -15.074290 14.603163 3.457105 8.899772 -3.246033 10.218740 -8.422427 9.336173 19.397946 0.202820 7.119502 2.536673 -0.014210 -0.566980 0.062930 18.116867 -9.681570 4.176363 10.530742 5.763288 -31.921250 5.210154 -7.952534 34.502148 -0.277335 -4.318862 3.016321 -0.292390 0.495890 0.086490 -3.117097 -5.252358 -8.482783 15.506424 -14.908648 12.432492 -11.137310 -9.393127 -25.679132 6.541011 -3.859724 -12.036102 -11.410788 -5.704025 38.547711 -2.950490 -11.351600 -2.542750 4.264683 7.107945 -0.312817 -31.314546 -8.715115 2.780754 2.380826 -19.835467 0.196837 -3.855547 2.622445 0.598040 0.116660 -0.268720 0.146530 -17.266820 -1.687936 8.220787 35.561267 -6.442365 -6.858915 -7.701754 17.103522 0.635124 2.213305 -1.197085 -0.417570 0.368530 0.224240 -0.178930 
3.575030 16.650950 -20.251590 164.334940 72.562678 165.918717 -15.030603 14.725318 3.488300 8.215903 -3.018798 7.701254 -7.559466 8.503207 18.283496 0.026627 6.649152 2.632166 0.121470 -0.463260 0.168580 18.108254 -9.902687 4.063131 11.303025 4.749262 -27.126322 5.122993 -6.798361 28.950898 -0.219542 -3.575597 3.218114 -0.234420 0.404820 0.181630 -2.978394 -5.218070 -8.485862 14.596370 -14.707797 10.856482 -9.461079 -9.279369 -25.377297 6.525028 -3.126121 -11.161729 -10.128928 -6.902748 39.433248 -3.656170 -11.974300 -5.205680 3.724610 8.183400 -1.374586 -30.061692 -10.342376 3.396713 1.564364 -18.199696 0.101899 -3.838255 2.711475 0.653750 0.072230 -0.194480 0.151440 -16.960012 -2.924112 7.771426 31.496908 -3.122737 -5.055404 -7.705839 12.639483 0.439227 2.285211 -1.179398 -0.353850 0.292310 0.188030 -0.207300 
3.865100 16.866290 -20.188060 162.959951 72.868931 164.716446 -14.978596 14.770226 3.582395 7.490157 -2.644763 5.061856 -8.733061 8.265364 16.548038 -0.026162 6.289626 2.698246 0.167060 -0.460950 0.241990 18.131847 -10.017888 3.944493 11.391215 3.606898 -21.632320 4.853190 -5.364640 21.659243 -0.128332 -2.815970 3.460438 -0.258330 0.302130 0.215330 -3.001591 -5.310870 -8.491238 14.357997 -13.914252 8.387186 -10.185840 -9.240549 -23.878586 6.828055 -3.106881 -12.426335 -11.256261 -6.585047 42.306368 -4.028410 -12.457320 -4.490570 4.000135 5.803753 -0.526169 -28.412333 -11.245644 3.419261 3.184365 -14.391072 -0.416104 -3.825613 2.744414 0.677650 0.010950 -0.152120 0.118820 -17.397311 -0.867711 8.759821 30.069905 -5.874995 -5.714434 -5.112141 13.212321 0.535500 2.279821 -1.176485 -0.295340 0.197420 0.166170 -0.233120 
4.108170 17.083020 -20.100130 157.055304 71.711045 158.707623 -14.953629 14.546982 3.703409 4.939911 -2.112447 2.429716 -9.971820 7.928336 15.349535 -0.188479 5.906142 2.837708 0.222110 -0.428490 0.318170 18.104519 -10.408220 3.905476 9.402818 2.657193 -17.797193 5.541622 -4.445805 14.873027 -0.122379 -2.449211 3.598303 -0.214090 0.279460 0.171450 -2.915972 -4.488822 -8.689068 8.908192 -13.290536 7.990834 -8.037770 -9.307467 -24.152894 6.410756 -1.685665 -12.559504 -9.564663 -7.231412 47.160935 -4.643140 -13.317170 -4.544090 4.683802 5.066151 -0.767042 -26.064374 -14.017884 4.618474 0.218051 -11.148420 -0.333882 -3.782401 2.622117 0.769850 -0.032810 -0.118510 0.142440 -17.079871 -1.533435 8.825076 29.135955 -5.627791 -5.119183 -6.870270 11.467032 0.480718 2.330272 -1.116916 -0.359520 0.270880 0.127220 -0.267300 
4.323110 17.316970 -20.005530 157.508593 72.658885 158.594422 -14.952376 14.517293 3.745109 4.627379 -1.583566 1.090222 -10.247181 7.219579 11.562785 -0.187253 5.475896 2.996519 0.174450 -0.472950 0.262540 18.124047 -10.309870 3.962949 9.937003 2.391678 -14.808996 4.320000 -3.608133 10.771859 -0.125645 -2.325835 3.672434 -0.270700 0.300140 0.183280 -3.166153 -4.568628 -8.707370 10.116905 -13.786548 7.832948 -9.243216 -9.715745 -23.109410 5.726339 -2.161309 -14.710995 -11.185812 -5.172441 49.920392 -3.418420 -12.845330 -2.111230 6.323242 1.959898 1.221117 -24.676788 -11.601971 3.613156 1.188581 -10.908508 -0.371374 -3.779951 2.622234 0.751770 -0.027290 -0.113660 0.147070 -17.511800 1.604931 9.886512 30.693373 -7.130866 -5.878009 -7.276991 12.954254 0.553206 2.327647 -1.128516 -0.330250 0.248830 0.142390 -0.236530 
4.504810 17.478870 -19.937550 154.912495 74.130189 155.197241 -15.030750 14.303669 3.751473 4.100006 -1.114658 0.323430 -11.526560 6.907416 8.819288 -0.233335 5.273900 3.020016 0.210370 -0.371620 0.286530 18.121328 -10.189922 3.960939 9.560475 1.830836 -11.180331 3.397278 -2.930994 5.051223 -0.207040 -2.337685 3.691221 -0.219360 0.246880 0.161840 -3.165557 -4.455754 -8.755455 9.153843 -13.146035 8.765477 -8.999544 -9.808484 -20.375019 5.693432 -1.921354 -14.499536 -10.802132 -4.144687 50.638122 -2.873070 -10.950290 -6.389450 6.235648 1.312831 1.501603 -22.787794 -12.002141 3.566586 3.937150 -10.897982 -0.580985 -3.787619 2.551625 0.784760 -0.054290 -0.053640 0.118870 -17.283657 1.511232 9.515507 30.055128 -4.540239 -5.109618 -8.239344 11.764312 0.441217 2.330212 -1.049756 -0.317200 0.292380 0.143850 -0.253830 
